<?xml version="1.0" standalone="no"?>
<!DOCTYPE svg PUBLIC "-//W3C//DTD SVG 20010904//EN"
 "http://www.w3.org/TR/2001/REC-SVG-20010904/DTD/svg10.dtd">
<svg version="1.0" xmlns="http://www.w3.org/2000/svg"
 width="1756.000000pt" height="1128.000000pt" viewBox="0 0 1756.000000 1128.000000"
 preserveAspectRatio="xMidYMid meet">
<metadata>
Created by potrace 1.16, written by Peter Selinger 2001-2019
</metadata>
<g transform="translate(0.000000,1128.000000) scale(0.100000,-0.100000)"
fill="#000000" stroke="none">
<path d="M4450 8498 c0 -4 -229 -686 -510 -1516 -280 -831 -510 -1520 -510
-1532 0 -12 150 -517 334 -1123 184 -606 336 -1111 338 -1121 3 -18 -54 -36
-560 -185 l-563 -166 618 -3 c339 -1 620 1 623 5 4 5 236 689 516 1520 280
832 511 1513 514 1513 4 0 725 -2320 922 -2966 l19 -61 826 -7 c454 -3 827 -5
829 -4 1 2 -89 300 -201 663 -112 362 -203 660 -202 661 5 3 743 -229 747
-236 3 -4 144 424 314 952 l310 960 26 -84 c14 -45 221 -721 460 -1500 l435
-1418 826 0 826 0 55 158 c30 86 268 777 529 1534 261 758 476 1378 479 1378
3 0 324 -1034 714 -2298 390 -1263 802 -2596 915 -2961 l205 -663 825 7 c455
4 827 8 828 9 4 3 1623 5196 1623 5205 0 5 -264 11 -587 15 -473 5 -755 14
-1437 46 -467 23 -850 39 -853 37 -2 -3 131 -477 297 -1055 l300 -1051 -82
-262 c-45 -144 -83 -258 -85 -253 -1 5 -403 1309 -892 2897 -488 1588 -892
2891 -896 2895 -3 4 -379 8 -835 10 l-828 3 -34 -103 c-155 -461 -1012 -2965
-1017 -2970 -3 -4 -218 684 -477 1530 l-471 1537 -829 0 -828 0 -482 -1498
c-265 -824 -483 -1499 -485 -1501 -2 -2 -211 667 -463 1487 -253 821 -462
1495 -466 1500 -7 9 -1660 23 -1660 15z"/>
</g>
</svg>
